<?xml version="1.0" encoding="iso-8859-1"?>
<!-- Generator: Adobe Illustrator 19.0.0, SVG Export Plug-In . SVG Version: 6.00 Build 0)  -->
<svg version="1.1" id="Capa_1" xmlns="http://www.w3.org/2000/svg" xmlns:xlink="http://www.w3.org/1999/xlink" x="0px" y="0px"
     viewBox="0 0 480 480" style="enable-background:new 0 0 480 480;" xml:space="preserve">
<path id="XMLID_1214_" d="M280,220c0-5.523,4.478-10,10-10h20c5.522,0,10,4.477,10,10s-4.478,10-10,10h-20
	C284.478,230,280,225.523,280,220z M350.343,280.029c-5.507,0.42-9.63,5.225-9.21,10.732c0.196,2.577,0.296,5.205,0.296,7.811
	C341.429,354.499,295.928,400,240,400s-101.429-45.501-101.429-101.429c0-2.606,0.1-5.234,0.296-7.811
	c0.42-5.507-3.703-10.312-9.21-10.732c-5.488-0.413-10.311,3.703-10.731,9.21c-0.235,3.081-0.354,6.221-0.354,9.332
	C118.571,365.527,173.044,420,240,420s121.429-54.473,121.429-121.429c0-3.111-0.119-6.251-0.354-9.332
	C360.654,283.732,355.853,279.614,350.343,280.029z M170,230h20c5.522,0,10-4.477,10-10s-4.478-10-10-10h-20
	c-5.522,0-10,4.477-10,10S164.478,230,170,230z M465,255c0,19.299-15.701,35-35,35c0,104.767-85.233,190-190,190S50,394.767,50,290
	c-19.299,0-35-15.701-35-35c0-19.299,15.701-35,35-35h13.327c17.549-44.292,50.793-79.464,91.921-100H76.509
	C45.35,120,20,94.65,20,63.491c0-20.793,10.845-39.248,29.01-49.367c18.164-10.119,39.563-9.625,57.243,1.319L230,92.048V80
	c0-33.084-26.916-60-60-60c-5.522,0-10-4.477-10-10s4.478-10,10-10c30.082,0,56.341,16.691,70,41.297
	C253.659,16.691,279.918,0,310,0c5.522,0,10,4.477,10,10s-4.478,10-10,10c-33.084,0-60,26.916-60,60v12.048l123.747-76.605
	c17.679-10.944,39.077-11.438,57.243-1.319C449.155,24.243,460,42.698,460,63.491C460,94.65,434.65,120,403.491,120h-78.739
	c41.128,20.536,74.372,55.708,91.921,100H430C449.299,220,465,235.701,465,255z M275.152,100h128.339
	C423.622,100,440,83.622,440,63.491c0-13.434-7.007-25.357-18.742-31.895c-11.736-6.537-25.561-6.219-36.983,0.852L275.152,100z
	 M204.848,100L95.726,32.448c-5.956-3.687-12.567-5.539-19.193-5.539c-6.081,0-12.174,1.559-17.79,4.687
	C47.007,38.134,40,50.057,40,63.491C40,83.622,56.378,100,76.509,100H204.848z M445,255c0-8.271-6.729-15-15-15h-20.257
	c-4.238,0-8.016-2.671-9.429-6.667C376.353,165.545,311.927,120,240,120S103.647,165.545,79.686,233.333
	c-1.413,3.996-5.19,6.667-9.429,6.667H50c-8.271,0-15,6.729-15,15s6.729,15,15,15h10.281c2.747,0,5.373,1.13,7.262,3.125
	s2.874,4.679,2.724,7.422C70.09,283.768,70,286.948,70,290c0,93.738,76.262,170,170,170s170-76.262,170-170
	c0-3.052-0.09-6.232-0.267-9.452c-0.15-2.743,0.835-5.427,2.724-7.422s4.515-3.125,7.262-3.125H430C438.271,270,445,263.271,445,255
	z"/>
</svg>
